<?xml version="1.0" encoding="utf-8"?>
<svg version="1.1" id="layer" xmlns="http://www.w3.org/2000/svg" xmlns:xlink="http://www.w3.org/1999/xlink" x="0px" y="0px" viewBox="18 282 606 80" style="enable-background:new 18 282 606 80;" xml:space="preserve">
<style type="text/css">.st0{fill:currentColor;}</style>
<polygon class="st0" points="165.5,286 25.4,285.9 20.5,299.6 68.8,299.6 47.8,357.3 95.6,357.3 116.4,299.6 160.6,299.6 "/>
<polygon class="st0" points="517.1,285.9 466.8,285.9 440.9,357.4 491.3,357.4 "/>
<polygon class="st0" points="508,319.2 537.9,357.4 596,357.4 562.6,319.6 620.5,285.9 561.4,285.9 "/>
<path class="st0" d="M450.8,299.6l5-13.7h-129L309,335c-1.4,3.1-1,6.7,1,9.4l7.7,8.8c2.1,2.7,5.3,4.2,8.7,4.2h103.3l4.9-13.5h-72.2c-2.7,0.4-5.2-1.5-5.6-4.1c-0.1-0.8,0-1.7,0.3-2.5l3.2-9.1h79.9l5-13.7h-79.9l5.4-14.9L450.8,299.6z"/>
<path class="st0" d="M302.7,285.9H174.5l-25.9,71.5h49.1l20.8-57.8H255c2.3-0.3,4.5,1.3,4.8,3.6c0.1,0.7,0,1.4-0.2,2.1c-0.9,3-2.2,6.4-3,8.6c-1.5,3.4-4.9,5.5-8.5,5.3h-34.3l29.8,38.1h56.5l-25.4-28.6h15.2c5.8,0.4,11.1-3.1,13.1-8.5c2.2-5.4,6.8-18.6,8.4-22.9C313.9,290.2,310,285.9,302.7,285.9z"/>
</svg>
